<?xml version="1.0" standalone="no"?>
<!DOCTYPE svg PUBLIC "-//W3C//DTD SVG 20010904//EN"
 "http://www.w3.org/TR/2001/REC-SVG-20010904/DTD/svg10.dtd">
<svg version="1.0" xmlns="http://www.w3.org/2000/svg"
 width="1280.000000pt" height="640.000000pt" viewBox="0 0 1280.000000 640.000000"
 preserveAspectRatio="xMidYMid meet">
<g transform="translate(0.000000,640.000000) scale(0.100000,-0.100000)"
fill="#000000" stroke="none">
<path d="M1235 4914 c-230 -33 -351 -66 -491 -134 -403 -195 -637 -589 -708
-1191 -43 -362 -44 -460 -12 -743 70 -620 285 -993 689 -1197 382 -194 1013
-221 1468 -64 103 36 265 111 304 141 20 15 20 28 23 845 1 566 -1 836 -8 849
-10 20 -24 20 -568 20 -421 0 -561 -3 -570 -12 -17 -17 -17 -559 0 -576 9 -9
72 -12 223 -12 151 0 214 -3 223 -12 14 -14 18 -634 4 -655 -13 -21 -136 -35
-317 -37 -160 0 -189 2 -260 22 -115 33 -190 77 -270 157 -160 161 -240 414
-252 800 -18 565 121 921 417 1070 37 19 105 44 151 57 77 21 104 23 329 23
263 -1 339 -10 510 -60 94 -27 100 -28 117 -17 15 9 136 512 131 545 -7 50
-218 124 -468 163 -101 15 -589 29 -665 18z"/>
<path d="M5676 4778 c-14 -20 -16 -189 -16 -1606 0 -1072 3 -1590 10 -1603 10
-18 25 -19 334 -19 259 0 326 3 335 13 8 10 12 213 13 698 l3 684 478 3 477 2
0 -681 c0 -450 4 -687 10 -700 10 -18 25 -19 333 -19 238 0 326 3 335 12 9 9
12 381 12 1615 0 1574 0 1602 -19 1613 -12 6 -135 10 -329 10 -276 0 -311 -2
-323 -17 -11 -13 -15 -126 -19 -607 l-5 -591 -475 0 -475 0 -3 595 c-2 545 -3
596 -19 608 -13 9 -95 12 -329 12 -312 0 -313 0 -328 -22z"/>
<path d="M10696 4784 c-14 -14 -16 -173 -16 -1605 0 -1077 3 -1597 10 -1610
10 -18 24 -19 240 -19 264 0 252 -4 266 98 4 30 12 56 19 59 7 2 35 -11 62
-30 110 -79 281 -145 442 -172 137 -23 380 -17 492 13 115 31 205 79 280 150
152 142 238 347 274 651 8 69 20 156 25 194 28 193 -8 569 -75 773 -72 219
-189 369 -355 452 -130 65 -217 84 -390 85 -204 1 -364 -33 -522 -113 -33 -16
-64 -27 -69 -24 -5 3 -9 249 -9 549 0 528 -1 545 -19 555 -12 6 -135 10 -330
10 -268 0 -312 -2 -325 -16z m1190 -1543 c96 -43 166 -139 202 -278 24 -97 24
-523 -1 -633 -48 -213 -131 -283 -337 -284 -125 0 -227 21 -320 67 l-65 32 0
510 0 510 45 22 c59 29 159 63 218 73 78 15 202 5 258 -19z"/>
<path d="M3151 4719 c-116 -20 -227 -106 -279 -217 -24 -50 -27 -69 -27 -162
0 -95 3 -110 28 -163 37 -74 110 -147 184 -184 52 -25 68 -28 158 -28 89 0
107 3 163 29 80 37 161 122 193 203 35 88 33 218 -3 296 -15 32 -41 76 -57 96
-79 100 -225 152 -360 130z"/>
<path d="M4183 4393 c-10 -4 -13 -77 -13 -319 l0 -314 -22 -14 c-13 -8 -86
-28 -163 -46 -77 -18 -150 -38 -162 -46 -23 -14 -23 -17 -23 -229 0 -202 1
-215 19 -225 11 -6 89 -10 180 -10 158 0 161 0 166 -22 3 -13 6 -270 8 -573 3
-527 4 -553 25 -625 66 -231 210 -378 430 -439 170 -47 402 -52 590 -11 114
24 128 31 136 71 10 50 7 405 -4 433 l-10 26 -137 -1 c-76 -1 -156 3 -178 9
-70 20 -130 65 -156 118 l-24 49 0 480 0 480 235 2 c225 3 236 4 253 24 15 19
17 48 17 266 0 149 -4 252 -10 264 -10 18 -24 19 -243 19 -168 0 -236 3 -245
12 -9 9 -12 92 -12 314 l0 302 -22 6 c-27 7 -618 7 -635 -1z"/>
<path d="M2882 3748 c-9 -9 -12 -265 -12 -1089 l0 -1078 22 -15 c32 -23 613
-24 644 -2 19 14 19 37 19 1096 0 950 -2 1082 -15 1090 -23 15 -643 13 -658
-2z"/>
<path d="M8337 3747 c-17 -11 -18 -66 -15 -857 3 -836 4 -846 25 -923 54 -188
151 -316 297 -387 309 -152 781 -120 1134 77 35 19 69 32 76 30 8 -3 17 -27
21 -54 13 -88 -2 -83 238 -83 152 0 216 3 225 12 9 9 12 266 12 1095 0 1060 0
1083 -19 1093 -25 13 -620 13 -641 0 -13 -8 -16 -112 -20 -802 l-5 -793 -85
-42 c-188 -94 -407 -96 -499 -4 -72 72 -71 62 -71 884 0 714 0 727 -20 747
-19 19 -33 20 -328 20 -233 0 -312 -3 -325 -13z"/>
</g>
</svg>
